# xmcd
#
# Track frame offsets:
# 150
# 12777
# 27377
# 40105
# 53005
# 69305
# 86612
# 99542
# 116970
# 127835
# 147667
# 163582
#
# Disc length: 2421 seconds
#
#
# Revision: 0
# Processed by: cddbd v1.5.2PL0 Copyright (c) Steve Scherf et al.
# Submitted via: FreeRIP 2.96 
#
DISCID=9c09730c
DTITLE=dolly parton  - covered by dolly
DYEAR=2005
DGENRE=Country
TTITLE0=help
TTITLE1=harper valley pta
TTITLE2=in the ghetto
TTITLE3=I cant help myself
TTITLE4=I walk the line
TTITLE5=save the last dance for me
TTITLE6=higher and higher
TTITLE7=great balls on fire
TTITLE8=games people play
TTITLE9=turn turn turn
TTITLE10=release me
TTITLE11=the house of the rising sun
EXTD=
EXTT0=
EXTT1=
EXTT2=
EXTT3=
EXTT4=
EXTT5=
EXTT6=
EXTT7=
EXTT8=
EXTT9=
EXTT10=
EXTT11=
PLAYORDER=
